<svg id="Layer_1" data-name="Layer 1" xmlns="http://www.w3.org/2000/svg" viewBox="0 0 107.39 65"><defs><style>.cls-1,.cls-2{fill:#fff;}.cls-2{stroke:#fff;stroke-miterlimit:10;stroke-width:0.25px;}</style></defs><rect x="4.39" width="99" height="44"/><path class="cls-1" d="M25.14,11.59l2,.06,2.53,0c1,0,1.9,0,2.79,0l1.92,0A9.6,9.6,0,0,1,40,12.94a4,4,0,0,1,1.84,3.39,4.21,4.21,0,0,1-.63,2.13,5.78,5.78,0,0,1-1.95,1.92,9.63,9.63,0,0,1-3.42,1.23v.06a12.39,12.39,0,0,1,4.47,1,5.64,5.64,0,0,1,2.37,1.95A4.38,4.38,0,0,1,43.38,27a4.9,4.9,0,0,1-2.2,4.32,10.7,10.7,0,0,1-6.08,1.5c-.48,0-1.17,0-2.08,0s-2,0-3.25,0l-2.6,0c-.85,0-1.53,0-2,.07v-.6A5.3,5.3,0,0,0,26.58,32a1,1,0,0,0,.65-.72,6,6,0,0,0,.16-1.62V14.77a5.91,5.91,0,0,0-.16-1.63,1.08,1.08,0,0,0-.66-.72,4.46,4.46,0,0,0-1.43-.23Zm8.88.6c-.78,0-1.28.17-1.51.51a4.12,4.12,0,0,0-.35,2.07V29.65a3.4,3.4,0,0,0,.4,2c.25.31.81.46,1.67.46a3.68,3.68,0,0,0,3.17-1.36,6.48,6.48,0,0,0,1-3.89,5.09,5.09,0,0,0-1.15-3.57,5,5,0,0,0-3.83-1.26H30.87v-.51h2.58a3.12,3.12,0,0,0,2.16-.67,3.6,3.6,0,0,0,1-1.8,9.38,9.38,0,0,0,.3-2.42,6.48,6.48,0,0,0-.69-3.34A2.44,2.44,0,0,0,34,12.19Z"/><path class="cls-1" d="M87.12,11.59v.6a4.38,4.38,0,0,0-1.44.23,1.09,1.09,0,0,0-.65.72,5.91,5.91,0,0,0-.16,1.63V29.65A6,6,0,0,0,85,31.27a1,1,0,0,0,.65.72,5.3,5.3,0,0,0,1.44.24v.6c-.56,0-1.27-.06-2.12-.07l-2.59,0-2.7,0c-.84,0-1.52,0-2,.07v-.6A6.12,6.12,0,0,0,79.21,32a1.09,1.09,0,0,0,.71-.72,5.46,5.46,0,0,0,.18-1.62V13.42h.21L72.87,32.86h-.48l-8.1-19.32V27.91a13.61,13.61,0,0,0,.18,2.54,1.8,1.8,0,0,0,.79,1.26,5,5,0,0,0,1.94.52v.6c-.38,0-.88-.06-1.5-.07l-1.74,0-1.41,0c-.48,0-.88,0-1.2.07v-.6a3.25,3.25,0,0,0,1.44-.51,1.85,1.85,0,0,0,.64-1.18,12.12,12.12,0,0,0,.17-2.27V14.77a5.83,5.83,0,0,0-.17-1.63,1.08,1.08,0,0,0-.66-.72,4.39,4.39,0,0,0-1.42-.23v-.6l1.2.06,1.41,0c.86,0,1.7,0,2.53,0l2.21-.06L75,26.8l-.75.69,6-15.81h2.13c.88,0,1.74,0,2.59,0Z"/><line class="cls-2" x1="52.39" y1="9.92" x2="52.39" y2="33.92"/><path d="M4.1,48.51l.67,0H7.19A3.14,3.14,0,0,1,9,49a1.34,1.34,0,0,1,.62,1.13,1.41,1.41,0,0,1-.21.71,2,2,0,0,1-.65.64,3.53,3.53,0,0,1-1.14.41v0a4,4,0,0,1,1.49.34,1.87,1.87,0,0,1,.79.65,1.43,1.43,0,0,1,.24.79,1.66,1.66,0,0,1-.74,1.44,3.57,3.57,0,0,1-2,.5l-.7,0H4.77a5.82,5.82,0,0,0-.67,0v-.2a2.14,2.14,0,0,0,.48-.08.36.36,0,0,0,.21-.24,1.82,1.82,0,0,0,.06-.54v-5A1.85,1.85,0,0,0,4.79,49a.35.35,0,0,0-.22-.24,1.41,1.41,0,0,0-.47-.07Zm3,.2c-.26,0-.43,0-.51.17a1.34,1.34,0,0,0-.11.69v5a1.12,1.12,0,0,0,.13.67.73.73,0,0,0,.56.16,1.22,1.22,0,0,0,1-.46,2.15,2.15,0,0,0,.34-1.29,1.67,1.67,0,0,0-.39-1.19A1.66,1.66,0,0,0,6.86,52H6v-.17h.86a1.05,1.05,0,0,0,.72-.23,1.28,1.28,0,0,0,.35-.6,3.44,3.44,0,0,0,.1-.8,2.2,2.2,0,0,0-.23-1.12A.82.82,0,0,0,7.06,48.71Z"/><path d="M15.7,50.31V54.5a1.16,1.16,0,0,0,.14.66.56.56,0,0,0,.5.22v.21l-.62,0q-.42,0-.78,0a3.58,3.58,0,0,0-.68.11v-.9a1.5,1.5,0,0,1-.67.71,2.1,2.1,0,0,1-.94.22,1.82,1.82,0,0,1-.68-.11,1.18,1.18,0,0,1-.41-.28,1,1,0,0,1-.24-.5,3.6,3.6,0,0,1-.07-.8V51.51a1.29,1.29,0,0,0-.14-.67.55.55,0,0,0-.5-.21v-.21l.62,0c.28,0,.54,0,.78,0a6.52,6.52,0,0,0,.68-.1v4.14a2,2,0,0,0,0,.44.52.52,0,0,0,.18.29.57.57,0,0,0,.38.11A.89.89,0,0,0,14,55a1.23,1.23,0,0,0,.29-.82V51.51a1.29,1.29,0,0,0-.14-.67.55.55,0,0,0-.5-.21v-.21l.62,0c.28,0,.54,0,.78,0A6.52,6.52,0,0,0,15.7,50.31Z"/><path d="M18.81,47.77v3.44a1.46,1.46,0,0,1,.67-.73,2.12,2.12,0,0,1,1-.2,1.94,1.94,0,0,1,.69.1,1,1,0,0,1,.41.29,1.13,1.13,0,0,1,.24.49,3.44,3.44,0,0,1,.08.81v2.69a.82.82,0,0,0,.14.57.68.68,0,0,0,.5.15v.21l-.58,0h-1.5l-.54,0v-.21a.51.51,0,0,0,.42-.15,1,1,0,0,0,.12-.57V51.55a1.84,1.84,0,0,0-.05-.44.59.59,0,0,0-.19-.29.61.61,0,0,0-.38-.1.88.88,0,0,0-.7.32,1.15,1.15,0,0,0-.29.83v2.79a1,1,0,0,0,.12.57.51.51,0,0,0,.42.15v.21l-.53,0h-1.5l-.59,0v-.21a.67.67,0,0,0,.49-.15.81.81,0,0,0,.15-.57V49a1.29,1.29,0,0,0-.14-.67.55.55,0,0,0-.5-.21v-.21l.62,0c.27,0,.53,0,.78,0A6.52,6.52,0,0,0,18.81,47.77Z"/><path d="M24.9,47.76v6.9a.82.82,0,0,0,.14.57.68.68,0,0,0,.5.15v.21l-.57,0H23.41l-.59,0v-.21a.67.67,0,0,0,.49-.15.81.81,0,0,0,.15-.57V49a1.29,1.29,0,0,0-.14-.67.55.55,0,0,0-.5-.21v-.21l.62,0c.27,0,.53,0,.78,0A6.52,6.52,0,0,0,24.9,47.76Z"/><path d="M28,50.28a2.3,2.3,0,0,1,.73.1,1.83,1.83,0,0,1,.46.21q.33.22.42-.3h.21a6.39,6.39,0,0,0,0,.68c0,.27,0,.63,0,1.08h-.21a3.74,3.74,0,0,0-.19-.73,1.49,1.49,0,0,0-.41-.59,1,1,0,0,0-.68-.23.72.72,0,0,0-.49.16.57.57,0,0,0-.2.48.8.8,0,0,0,.18.52,2.4,2.4,0,0,0,.46.43l.6.44a5.68,5.68,0,0,1,.84.74,1.4,1.4,0,0,1,.35,1,1.24,1.24,0,0,1-.26.78,1.8,1.8,0,0,1-.69.52,2.39,2.39,0,0,1-.94.18,2.23,2.23,0,0,1-.54-.06,1.68,1.68,0,0,1-.4-.15l-.25-.12-.21-.09a.15.15,0,0,0-.18.07.61.61,0,0,0-.11.28h-.21q0-.33,0-.78c0-.31,0-.72,0-1.22h.21a3.68,3.68,0,0,0,.22,1,1.54,1.54,0,0,0,.43.65,1,1,0,0,0,.7.24.8.8,0,0,0,.48-.17.65.65,0,0,0,.22-.54,1,1,0,0,0-.29-.73,6,6,0,0,0-.72-.63l-.61-.52a2.41,2.41,0,0,1-.46-.56,1.31,1.31,0,0,1-.18-.69,1.19,1.19,0,0,1,.24-.76,1.42,1.42,0,0,1,.63-.47A2.37,2.37,0,0,1,28,50.28Z"/><path d="M41.62,48.51v.2a1.35,1.35,0,0,0-.48.07.35.35,0,0,0-.22.24,1.92,1.92,0,0,0-.05.55v5a1.89,1.89,0,0,0,.05.54.35.35,0,0,0,.22.24,2,2,0,0,0,.48.08v.2a7,7,0,0,0-.71,0H39.15a6.13,6.13,0,0,0-.68,0v-.2a2.48,2.48,0,0,0,.51-.08.36.36,0,0,0,.24-.24,1.82,1.82,0,0,0,.06-.54V49.12h.07L36.87,55.6h-.16L34,49.16V54a4.53,4.53,0,0,0,.06.84.57.57,0,0,0,.26.42,1.83,1.83,0,0,0,.65.18v.2a3.43,3.43,0,0,0-.5,0h-1a2.17,2.17,0,0,0-.4,0v-.2a1.21,1.21,0,0,0,.48-.17.7.7,0,0,0,.21-.4,3.64,3.64,0,0,0,.06-.75v-4.5a1.85,1.85,0,0,0-.06-.55.35.35,0,0,0-.22-.24,1.41,1.41,0,0,0-.47-.07v-.2l.4,0h1.31l.74,0,2.1,5.07-.25.23,2-5.27h1.57Z"/><path d="M44.58,50.28a2.9,2.9,0,0,1,1.28.27,2,2,0,0,1,.86.87A3.57,3.57,0,0,1,47,53a3.52,3.52,0,0,1-.31,1.58,2,2,0,0,1-.86.87,2.9,2.9,0,0,1-1.28.27,2.86,2.86,0,0,1-1.27-.27,1.93,1.93,0,0,1-.87-.87A3.39,3.39,0,0,1,42.13,53a3.43,3.43,0,0,1,.31-1.59,1.93,1.93,0,0,1,.87-.87A2.86,2.86,0,0,1,44.58,50.28Zm-1.37,4.54.16.2-.9,1.3-.2-.13Zm2.45-3.89.15.2L43.58,55l-.16-.21Zm-1.08-.45c-.27,0-.49.19-.67.59A5.05,5.05,0,0,0,43.64,53a5,5,0,0,0,.27,1.93c.18.39.4.59.67.59s.49-.2.67-.59A5,5,0,0,0,45.52,53a5.05,5.05,0,0,0-.27-1.94C45.07,50.67,44.85,50.48,44.58,50.48Zm2.12-.79.19.13L46,51.13l-.15-.2Z"/><path d="M49.55,47.77v7.62a1.46,1.46,0,0,0-.51,0,1.69,1.69,0,0,0-.48.13,1.23,1.23,0,0,0-.37.23L48,55.66c0-.1,0-.19.05-.28s0-.19,0-.28V49A1.29,1.29,0,0,0,48,48.3a.55.55,0,0,0-.5-.21v-.21l.62,0c.27,0,.53,0,.78,0A6.52,6.52,0,0,0,49.55,47.77Zm1.53,2.51a1.59,1.59,0,0,1,1.29.63,3.1,3.1,0,0,1,.52,2,3.76,3.76,0,0,1-.32,1.67,2.06,2.06,0,0,1-.83.91,2.46,2.46,0,0,1-1.14.28,2.06,2.06,0,0,1-.76-.14,1.43,1.43,0,0,1-.6-.46l.14-.05a1.34,1.34,0,0,0,.42.33,1.24,1.24,0,0,0,.49.11.89.89,0,0,0,.82-.62A5,5,0,0,0,51.38,53a7,7,0,0,0-.11-1.37,1.52,1.52,0,0,0-.3-.72.66.66,0,0,0-.48-.21.87.87,0,0,0-.64.28,1.15,1.15,0,0,0-.33.8l-.05-.35a1.6,1.6,0,0,1,.61-.87A1.68,1.68,0,0,1,51.08,50.28Z"/><path d="M56.09,50.28a1.83,1.83,0,0,1,1.38.52,2.4,2.4,0,0,1,.5,1.7H54.68l0-.19h2.05a6.42,6.42,0,0,0-.06-.91,1.88,1.88,0,0,0-.22-.66.45.45,0,0,0-.4-.25.69.69,0,0,0-.6.44,3.55,3.55,0,0,0-.29,1.46l0,.06a2,2,0,0,0,0,.25V53a2.75,2.75,0,0,0,.19,1.12,1.44,1.44,0,0,0,.5.62,1.11,1.11,0,0,0,.61.2,1.69,1.69,0,0,0,.65-.15,1.58,1.58,0,0,0,.67-.65l.18.06a2.74,2.74,0,0,1-.38.74,2.33,2.33,0,0,1-.66.59,2,2,0,0,1-1,.23,2.42,2.42,0,0,1-1.2-.29,2.06,2.06,0,0,1-.82-.88,3.34,3.34,0,0,1-.29-1.5A3.4,3.4,0,0,1,54,51.51a2.07,2.07,0,0,1,.87-.93A2.62,2.62,0,0,1,56.09,50.28Z"/><path d="M60.59,47.76v6.9a.82.82,0,0,0,.14.57.68.68,0,0,0,.5.15v.21l-.57,0H59.1l-.59,0v-.21a.67.67,0,0,0,.49-.15.81.81,0,0,0,.15-.57V49a1.29,1.29,0,0,0-.14-.67.55.55,0,0,0-.5-.21v-.21l.62,0c.27,0,.53,0,.78,0A6.52,6.52,0,0,0,60.59,47.76Z"/><path d="M63.7,50.31v6.1a.68.68,0,0,0,.24.62,1.24,1.24,0,0,0,.66.16v.21l-.72,0H62.19l-.53,0v-.21a.63.63,0,0,0,.46-.14.81.81,0,0,0,.14-.54v-5a1.29,1.29,0,0,0-.14-.67.56.56,0,0,0-.5-.21v-.21l.62,0c.27,0,.53,0,.78,0A6.52,6.52,0,0,0,63.7,50.31Zm1.55,0a1.57,1.57,0,0,1,1.27.62A2.88,2.88,0,0,1,67,52.77a4.13,4.13,0,0,1-.29,1.63,2.24,2.24,0,0,1-.81,1,2.21,2.21,0,0,1-1.22.34,1.8,1.8,0,0,1-.71-.14,1.06,1.06,0,0,1-.49-.38l.1-.13a.69.69,0,0,0,.28.28,1,1,0,0,0,.43.1.91.91,0,0,0,.71-.31,2,2,0,0,0,.37-.86A6.32,6.32,0,0,0,65.53,53a6.61,6.61,0,0,0-.11-1.35,1.71,1.71,0,0,0-.3-.7.6.6,0,0,0-.46-.21A.93.93,0,0,0,64,51a1.12,1.12,0,0,0-.33.8l-.05-.35a1.6,1.6,0,0,1,.61-.87A1.75,1.75,0,0,1,65.25,50.28Z"/><path d="M70.24,50.28a2.9,2.9,0,0,1,1.28.27,2,2,0,0,1,.86.87A3.57,3.57,0,0,1,72.69,53a3.52,3.52,0,0,1-.31,1.58,2,2,0,0,1-.86.87,2.9,2.9,0,0,1-1.28.27A2.86,2.86,0,0,1,69,55.46a1.93,1.93,0,0,1-.87-.87A3.39,3.39,0,0,1,67.79,53a3.43,3.43,0,0,1,.31-1.59,1.93,1.93,0,0,1,.87-.87A2.86,2.86,0,0,1,70.24,50.28Zm0,.2c-.27,0-.49.19-.67.59A5.05,5.05,0,0,0,69.3,53a5,5,0,0,0,.27,1.93c.18.39.4.59.67.59s.49-.2.67-.59A5,5,0,0,0,71.18,53a5.05,5.05,0,0,0-.27-1.94C70.73,50.67,70.51,50.48,70.24,50.48Z"/><path d="M75.25,47.76v6.9a.82.82,0,0,0,.14.57.68.68,0,0,0,.5.15v.21l-.57,0H73.76l-.59,0v-.21a.67.67,0,0,0,.49-.15.81.81,0,0,0,.15-.57V49a1.29,1.29,0,0,0-.14-.67.55.55,0,0,0-.5-.21v-.21l.62,0c.27,0,.53,0,.78,0A6.52,6.52,0,0,0,75.25,47.76Z"/><path d="M78.3,50.28a2.3,2.3,0,0,1,.73.1,1.83,1.83,0,0,1,.46.21q.33.22.42-.3h.21a6.39,6.39,0,0,0,0,.68c0,.27,0,.63,0,1.08h-.21a3.74,3.74,0,0,0-.19-.73,1.49,1.49,0,0,0-.41-.59,1,1,0,0,0-.68-.23.72.72,0,0,0-.49.16.57.57,0,0,0-.2.48.8.8,0,0,0,.18.52,2.4,2.4,0,0,0,.46.43l.6.44a5.68,5.68,0,0,1,.84.74,1.4,1.4,0,0,1,.35,1,1.24,1.24,0,0,1-.26.78,1.8,1.8,0,0,1-.69.52,2.39,2.39,0,0,1-.94.18,2.23,2.23,0,0,1-.54-.06,1.68,1.68,0,0,1-.4-.15l-.25-.12L77,55.31a.15.15,0,0,0-.18.07.61.61,0,0,0-.11.28h-.21q0-.33,0-.78c0-.31,0-.72,0-1.22h.21a3.68,3.68,0,0,0,.22,1,1.54,1.54,0,0,0,.43.65,1,1,0,0,0,.7.24.8.8,0,0,0,.48-.17.65.65,0,0,0,.22-.54,1,1,0,0,0-.29-.73,6,6,0,0,0-.72-.63l-.61-.52a2.41,2.41,0,0,1-.46-.56,1.31,1.31,0,0,1-.18-.69,1.19,1.19,0,0,1,.24-.76,1.42,1.42,0,0,1,.63-.47A2.37,2.37,0,0,1,78.3,50.28Z"/><path d="M83,48.78v1.64h1.18v.2H83v4a.59.59,0,0,0,.11.42.42.42,0,0,0,.33.13.61.61,0,0,0,.36-.14,1.15,1.15,0,0,0,.32-.46l.17.09a1.81,1.81,0,0,1-.49.74,1.3,1.3,0,0,1-.88.29,1.68,1.68,0,0,1-.58-.09,1.09,1.09,0,0,1-.42-.25,1,1,0,0,1-.29-.55,3.93,3.93,0,0,1-.07-.84V50.62h-.84v-.2h.84V49.1A3.71,3.71,0,0,0,82.3,49,2.55,2.55,0,0,0,83,48.78Z"/><path d="M87.9,50.28a.93.93,0,0,1,.52.13.82.82,0,0,1,.29.35,1.09,1.09,0,0,1,.1.44.89.89,0,0,1-.22.6A.71.71,0,0,1,88,52a.78.78,0,0,1-.55-.18.59.59,0,0,1-.19-.46.84.84,0,0,1,.12-.47,1.05,1.05,0,0,1,.32-.31.39.39,0,0,0-.28,0,.77.77,0,0,0-.47.24,1.49,1.49,0,0,0-.32.49,1.37,1.37,0,0,0-.12.55v2.65a.76.76,0,0,0,.23.65,1.24,1.24,0,0,0,.71.17v.21l-.67,0H85.08l-.62,0v-.21a.67.67,0,0,0,.49-.15.81.81,0,0,0,.15-.57V51.51a1.29,1.29,0,0,0-.14-.67.55.55,0,0,0-.5-.21v-.21l.62,0c.28,0,.54,0,.78,0a6.52,6.52,0,0,0,.68-.1v.93a1.6,1.6,0,0,1,.32-.49,1.31,1.31,0,0,1,.46-.35A1.34,1.34,0,0,1,87.9,50.28Z"/><path d="M91.21,50.31v4.35a.82.82,0,0,0,.14.57.68.68,0,0,0,.5.15v.21l-.57,0H89.73l-.6,0v-.21a.67.67,0,0,0,.49-.15.81.81,0,0,0,.15-.57V51.51a1.29,1.29,0,0,0-.14-.67.55.55,0,0,0-.5-.21v-.21l.62,0c.28,0,.54,0,.78,0A6.52,6.52,0,0,0,91.21,50.31Zm-.78-2.47a1,1,0,0,1,.66.2.73.73,0,0,1,.25.57.71.71,0,0,1-.25.56,1,1,0,0,1-.66.21,1,1,0,0,1-.67-.21.7.7,0,0,1-.24-.56.72.72,0,0,1,.24-.57A1,1,0,0,1,90.43,47.84Z"/><path d="M96,50.28a1.88,1.88,0,0,1,.68.1,1,1,0,0,1,.42.29,1.24,1.24,0,0,1,.23.49,3.44,3.44,0,0,1,.08.81v2.69a.82.82,0,0,0,.14.57.68.68,0,0,0,.5.15v.21l-.57,0H96l-.55,0v-.21a.51.51,0,0,0,.42-.15,1,1,0,0,0,.12-.57V51.55a1.84,1.84,0,0,0,0-.44.65.65,0,0,0-.18-.29.63.63,0,0,0-.39-.1.91.91,0,0,0-.71.33,1.21,1.21,0,0,0-.28.83v2.78a1,1,0,0,0,.12.57.51.51,0,0,0,.42.15v.21l-.53,0H92.88l-.6,0v-.21a.67.67,0,0,0,.49-.15.81.81,0,0,0,.15-.57V51.51a1.29,1.29,0,0,0-.14-.67.55.55,0,0,0-.5-.21v-.21l.62,0c.28,0,.54,0,.78,0a6.52,6.52,0,0,0,.68-.1v.9a1.45,1.45,0,0,1,.68-.72A2.12,2.12,0,0,1,96,50.28Z"/><path d="M100.29,57.47a5.21,5.21,0,0,1-1.11-.11,1.91,1.91,0,0,1-.76-.32.64.64,0,0,1-.27-.52.71.71,0,0,1,.28-.56,2,2,0,0,1,.83-.38l.09.16a.92.92,0,0,0-.28.32.8.8,0,0,0-.08.37.69.69,0,0,0,.38.64,2.1,2.1,0,0,0,1,.23,2.49,2.49,0,0,0,.8-.12,1.24,1.24,0,0,0,.56-.36.87.87,0,0,0,.21-.59.7.7,0,0,0-.22-.51,1.33,1.33,0,0,0-.88-.2h-.62a2.53,2.53,0,0,1-.72-.09,1,1,0,0,1-.47-.29.68.68,0,0,1-.17-.49,1,1,0,0,1,.33-.74,3,3,0,0,1,1-.6l.1.08a3.27,3.27,0,0,0-.36.25.43.43,0,0,0-.16.35c0,.21.13.32.4.32h1.09a2.87,2.87,0,0,1,1.38.3,1.08,1.08,0,0,1,.55,1,1.51,1.51,0,0,1-.32.91,2.14,2.14,0,0,1-1,.67A4.6,4.6,0,0,1,100.29,57.47Zm.1-4A2.45,2.45,0,0,1,99,53.07a1.35,1.35,0,0,1-.57-1.2A1.34,1.34,0,0,1,99,50.66a2.84,2.84,0,0,1,2.84,0,1.34,1.34,0,0,1,.57,1.21,1.35,1.35,0,0,1-.57,1.2A2.45,2.45,0,0,1,100.39,53.46Zm0-.18a.47.47,0,0,0,.42-.31,4.15,4.15,0,0,0,0-2.21.44.44,0,0,0-.84,0A4.15,4.15,0,0,0,100,53,.47.47,0,0,0,100.39,53.28ZM102,51.14l-.2-.07a1.48,1.48,0,0,1,.48-.65,1.13,1.13,0,0,1,.73-.26.61.61,0,0,1,.48.17.65.65,0,0,1,.17.46.59.59,0,0,1-.16.44.53.53,0,0,1-.36.15.48.48,0,0,1-.48-.49,1.19,1.19,0,0,1,.17-.63l.07.06a1.5,1.5,0,0,0-.57.32A1.45,1.45,0,0,0,102,51.14Z"/></svg>
