<svg id="Layer_1" data-name="Layer 1" xmlns="http://www.w3.org/2000/svg" viewBox="0 0 99 44"><defs><style>.cls-1,.cls-2{fill:#fff;}.cls-2{stroke:#fff;stroke-miterlimit:10;stroke-width:0.25px;}</style></defs><rect width="99" height="44"/><path class="cls-1" d="M20.75,11.59l2,.06,2.53,0q1.44,0,2.79,0l1.92,0a9.6,9.6,0,0,1,5.57,1.32,4,4,0,0,1,1.84,3.39,4.21,4.21,0,0,1-.63,2.13,5.78,5.78,0,0,1-1.95,1.92,9.63,9.63,0,0,1-3.42,1.23v.06a12.39,12.39,0,0,1,4.47,1,5.64,5.64,0,0,1,2.37,1.95A4.38,4.38,0,0,1,39,27a4.9,4.9,0,0,1-2.2,4.32,10.7,10.7,0,0,1-6.08,1.5c-.48,0-1.17,0-2.08,0s-2,0-3.26,0l-2.59,0c-.85,0-1.53,0-2,.07v-.6A5.3,5.3,0,0,0,22.19,32a1,1,0,0,0,.65-.72A6,6,0,0,0,23,29.65V14.77a5.91,5.91,0,0,0-.16-1.63,1.08,1.08,0,0,0-.66-.72,4.46,4.46,0,0,0-1.43-.23Zm8.88.6c-.78,0-1.28.17-1.51.51a4.12,4.12,0,0,0-.35,2.07V29.65a3.49,3.49,0,0,0,.39,2,2.2,2.2,0,0,0,1.68.46A3.68,3.68,0,0,0,33,30.78a6.48,6.48,0,0,0,1-3.89,5.09,5.09,0,0,0-1.15-3.57A5,5,0,0,0,29,22.06H26.48v-.51h2.58a3.12,3.12,0,0,0,2.16-.67,3.6,3.6,0,0,0,1.05-1.8,9.38,9.38,0,0,0,.3-2.42,6.48,6.48,0,0,0-.69-3.34A2.44,2.44,0,0,0,29.63,12.19Z"/><path class="cls-1" d="M82.73,11.59v.6a4.38,4.38,0,0,0-1.44.23,1.09,1.09,0,0,0-.65.72,5.91,5.91,0,0,0-.16,1.63V29.65a6,6,0,0,0,.16,1.62,1,1,0,0,0,.65.72,5.3,5.3,0,0,0,1.44.24v.6c-.56,0-1.27-.06-2.12-.07l-2.59,0-2.7,0c-.84,0-1.52,0-2,.07v-.6A6.12,6.12,0,0,0,74.82,32a1.09,1.09,0,0,0,.71-.72,5.46,5.46,0,0,0,.18-1.62V13.42h.21L68.48,32.86H68L59.9,13.54V27.91a13.61,13.61,0,0,0,.18,2.54,1.8,1.8,0,0,0,.79,1.26,5,5,0,0,0,1.94.52v.6c-.38,0-.88-.06-1.5-.07l-1.74,0-1.41,0c-.48,0-.88,0-1.2.07v-.6a3.25,3.25,0,0,0,1.44-.51A1.85,1.85,0,0,0,59,30.54a12.12,12.12,0,0,0,.17-2.27V14.77A5.83,5.83,0,0,0,59,13.14a1.08,1.08,0,0,0-.66-.72A4.39,4.39,0,0,0,57,12.19v-.6l1.2.06,1.41,0c.86,0,1.7,0,2.53,0l2.21-.06,6.3,15.21-.75.69,6-15.81H78c.88,0,1.74,0,2.59,0Z"/><line class="cls-2" x1="48" y1="9.92" x2="48" y2="33.92"/></svg>
